<?xml version="1.0" encoding="iso-8859-1"?>
<!-- Generator: Adobe Illustrator 19.0.0, SVG Export Plug-In . SVG Version: 6.00 Build 0)  -->
<svg version="1.1" id="Capa_1" xmlns="http://www.w3.org/2000/svg" xmlns:xlink="http://www.w3.org/1999/xlink" x="0px" y="0px"
	 viewBox="0 0 511.992 511.992" style="enable-background:new 0 0 511.992 511.992;" xml:space="preserve">
<path style="fill:#DFE6F4;" d="M459.344,95.348h-4.224c-4.2-17.664-20.12-30.912-39.168-30.912c-4.624,0-9.312,1.024-13.192,2.312
	c-9.312-26.432-34.536-45.424-64.288-45.424c-37.664,0-68.192,30.376-68.192,67.848c0,2.36,0.128,4.688,0.352,6.992
	c-24.752,4.256-43.744,25.808-43.744,51.6c0,28.832,23.704,52.432,52.68,52.432h179.744c28.976,0,52.68-23.592,52.68-52.432
	C512.024,118.948,488.32,95.348,459.344,95.348z"/>
<g>
	<path style="fill:#FFD07D;" d="M43.416,492.372L71.8,389.764l-35.384,0.008l16.96-59.472h70.144l-19.376,66.664h26.688
		L43.416,492.372z"/>
	<path style="fill:#FFD07D;" d="M244.728,492.372l28.384-102.608l-35.384,0.008l16.96-59.472h70.144l-19.376,66.664h26.688
		L244.728,492.372z"/>
</g>
<path style="fill:#629FD6;" d="M321.896,122.116h-5.848c-5.816-24.464-27.864-42.8-54.24-42.8c-6.408,0-12.896,1.416-18.272,3.2
	C230.64,45.908,195.704,19.62,154.512,19.62c-52.152,0-94.424,42.064-94.424,93.952c0,3.272,0.184,6.488,0.496,9.68
	C26.304,129.148,0,158.988,0,194.708c0,39.928,32.832,72.608,72.952,72.608h248.912c40.12,0,72.952-32.664,72.952-72.608
	C394.848,154.796,362.016,122.116,321.896,122.116z"/>
<g>
</g>
<g>
</g>
<g>
</g>
<g>
</g>
<g>
</g>
<g>
</g>
<g>
</g>
<g>
</g>
<g>
</g>
<g>
</g>
<g>
</g>
<g>
</g>
<g>
</g>
<g>
</g>
<g>
</g>
</svg>
